<?xml version="1.0" standalone="no"?>
<!DOCTYPE svg PUBLIC "-//W3C//DTD SVG 20010904//EN"
 "http://www.w3.org/TR/2001/REC-SVG-20010904/DTD/svg10.dtd">
<svg version="1.0" xmlns="http://www.w3.org/2000/svg"
 width="145.000000pt" height="173.000000pt" viewBox="0 0 145.000000 173.000000"
 preserveAspectRatio="xMidYMid meet">

<g transform="translate(0.000000,173.000000) scale(0.100000,-0.100000)"
fill="#000000" stroke="none">
<path d="M655 1491 c-123 -32 -219 -135 -239 -257 l-7 -42 -80 -4 c-90 -5
-123 -22 -151 -79 -16 -31 -18 -72 -18 -424 0 -429 1 -433 63 -479 28 -21 39
-21 502 -21 463 0 474 0 502 21 62 46 63 50 63 479 0 352 -2 393 -18 424 -28
57 -61 74 -150 79 l-78 4 -17 65 c-27 104 -91 178 -191 221 -37 16 -141 24
-181 13z m148 -137 c18 -9 40 -24 51 -33 24 -21 56 -84 56 -111 0 -19 -5 -20
-185 -20 -180 0 -185 1 -185 20 0 27 32 90 56 111 57 49 146 63 207 33z m357
-669 l0 -375 -435 0 -435 0 0 375 0 375 435 0 435 0 0 -375z"/>
<path d="M414 958 c25 -159 154 -271 311 -271 157 0 286 112 311 271 l7 42
-65 0 -65 0 -7 -37 c-13 -83 -96 -153 -181 -153 -85 0 -168 70 -181 153 l-7
37 -65 0 -65 0 7 -42z"/>
</g>
</svg>
