<?xml version="1.0" standalone="no"?>
<!DOCTYPE svg PUBLIC "-//W3C//DTD SVG 20010904//EN"
 "http://www.w3.org/TR/2001/REC-SVG-20010904/DTD/svg10.dtd">
<svg version="1.0" xmlns="http://www.w3.org/2000/svg"
 width="37.000000pt" height="42.000000pt" viewBox="0 0 37.000000 42.000000"
 preserveAspectRatio="xMidYMid meet">

<g transform="translate(0.000000,42.000000) scale(0.100000,-0.100000)"
fill="#000000" stroke="none">
<path d="M99 347 c-93 -62 -91 -191 4 -261 39 -28 126 -28 164 0 71 53 92 138
51 208 -44 74 -149 100 -219 53z m166 -39 c40 -37 53 -86 36 -132 -9 -21 -15
-26 -29 -21 -57 24 -93 27 -139 12 -44 -15 -49 -15 -61 0 -6 9 -12 34 -12 56
0 32 7 46 39 78 34 34 44 39 85 39 38 0 52 -6 81 -32z m-36 -169 c25 -9 29
-14 21 -24 -17 -21 -66 -28 -105 -15 -42 14 -44 25 -7 38 37 14 53 14 91 1z"/>
<path d="M147 292 c-24 -27 -21 -59 8 -78 33 -21 72 -6 81 31 13 52 -53 86
-89 47z m59 -23 c3 -6 0 -17 -7 -25 -18 -17 -44 -2 -36 20 7 18 33 21 43 5z"/>
</g>
</svg>
